<svg data-name="Layer 1" xmlns="http://www.w3.org/2000/svg" viewBox="0 0 3240 604.73"><defs><linearGradient id="a" x1="207" y1="1905.64" x2="3447" y2="1905.64" gradientUnits="userSpaceOnUse"><stop offset=".16" stop-color="#4d72b6"/><stop offset="1" stop-color="#5bc3e5"/></linearGradient></defs><path d="m334 1968.72-120.12-105.08h71.52l44-144.58q8-25.43 33.84-43.34t56-17.9h293l-42.45 36.81q-14.2 12.37-34.46 12.37H494.59q-11.1 0-21.61 7.37t-14 17.4l-40.15 131.86h188.96l-42.07 36.81q-14.54 12.38-34.8 12.38H403.57l-53.16 174.36q-4.2 14.05-17.4 22.92a52.49 52.49 0 0 1-30 8.87H207l36.33-118.47a42.81 42.81 0 0 1 17.59-23.09 52.39 52.39 0 0 1 29.83-8.7Zm368.28 149.93q-31 0-54.3-19.75l-29.07-25.43q-22.56-21.75-22.56-46.86a63.2 63.2 0 0 1 2.68-18.07L614.3 1959q6.87-22.08 27.53-36t47-13.89h165.63l12.24-38.82a18.37 18.37 0 0 0 .77-5q0-5.68-4.59-11-5.75-7-16.45-7H740.12q-19.89 0-34.42-12.39l-42.07-36.9H918q37.86 0 60.42 25.77 16.44 18.4 16.45 41.16a75.8 75.8 0 0 1-2.3 18.07l-72.28 235.61ZM760 1958.34q-16.07 1-19.88 13.39l-14.92 49.53a18.34 18.34 0 0 0-.76 5q0 7 6.11 12.38l28.69 25.1q5.34 5.35 14.53 5.36h31.74l34-110.78Zm376.7 128.51a42.79 42.79 0 0 1-17.59 23.09 52.32 52.32 0 0 1-29.83 8.71h-92.17l58.13-190.09a41 41 0 0 1 17.21-23.09q13-8.7 30.22-8.7h33.65L1023.5 1798h326.22q25.24 0 44.36 12.22t27.92 31.62a54.24 54.24 0 0 1 5 22.42 62.13 62.13 0 0 1-3.06 18.74l-99.43 325-82.22-71.95q-14.92-13.73-14.92-29.79a35.33 35.33 0 0 1 1.91-11.37l68.84-224.56a19.44 19.44 0 0 0 .76-5.36q0-5.68-5.16-11.71t-15.49-6h-68.45Zm396.59 31.8q-31 0-54.31-19.75l-29.06-25.43q-22.58-21.75-22.57-46.86a63.2 63.2 0 0 1 2.68-18.07l15.3-49.53q6.89-22.08 27.53-36t47-13.89h165.6l12.24-38.82a18.73 18.73 0 0 0 .76-5q0-5.68-4.59-11-5.73-7-16.44-7h-106.28q-19.89 0-34.42-12.39l-42.07-36.91H1749q37.86 0 60.43 25.77 16.44 18.4 16.44 41.16a75.78 75.78 0 0 1-2.29 18.07l-72.28 235.61Zm57.71-160.31q-16.07 1-19.89 13.39l-14.92 49.53a18.34 18.34 0 0 0-.76 5q0 7 6.12 12.38l28.68 25.1q5.36 5.35 14.53 5.36h31.74l34-110.78Zm685-300.85-42.07 36.81q-14.53 12.72-34.8 12.71h-73.05l-116.64 379.84a43 43 0 0 1-17.4 23.09q-12.81 8.71-29.64 8.71h-96L1992.21 1707h-58.13q-20.28 0-34.42-12.71l-42.07-36.81Zm236.34 461.16h-252.81q-31 0-54.3-19.75l-29.07-25.43q-22.56-21.75-22.56-46.86a63.2 63.2 0 0 1 2.68-18.07l24.47-80a40.8 40.8 0 0 1 17.4-23.09 53.3 53.3 0 0 1 30-8.7h33.66L2149 1798h326.22q25.23 0 44.55 12.22t27.73 31.62a54.24 54.24 0 0 1 5 22.42 62.13 62.13 0 0 1-3.06 18.74l-15.3 49.87q-6.49 22.42-27.15 36.31t-47 13.89H2294l-11.85 38.15a18.37 18.37 0 0 0-.77 5q0 7 6.12 12.38l29.07 25.1q5 5.35 14.53 5.36h104.79q20.26 0 34.42 12.71Zm-123.9-185.07q16-1 19.88-13.39l15.3-49.86a18.34 18.34 0 0 0 .76-5 16.84 16.84 0 0 0-4.2-11q-6.12-7-16.45-7h-52.77q-16.07 1.66-19.51 13.38l-22.56 73Zm619.16 185.07h-322.41a82.92 82.92 0 0 1-54.69-19.75l-28.69-25.43q-22.93-21.75-22.94-46.52a58.84 58.84 0 0 1 3.06-18.41l24.47-80a41 41 0 0 1 17.22-23.09 52.34 52.34 0 0 1 29.82-8.7h34L2574.66 1798h426.42l-32.51 106.42a40.75 40.75 0 0 1-17.4 23.1 53.3 53.3 0 0 1-30 8.7H2829l27.16-89h-79.55q-16.07 1.34-19.5 13.38l-49.34 160.64a18.34 18.34 0 0 0-.76 5q0 7 6.11 12.38l28.69 25.1q5.34 5.35 14.91 5.36h174.39q20.26 0 34.42 12.71ZM3245.07 1798h124.68q25.23 0 44.36 12.22t27.92 31.62a54.24 54.24 0 0 1 5 22.42 62.13 62.13 0 0 1-3.06 18.74l-99.44 325-82.6-71.95q-14.54-13.73-14.53-29.45a38.42 38.42 0 0 1 1.91-11.71l68.84-224.56a19.44 19.44 0 0 0 .76-5.36q0-5.68-5.16-11.71t-15.49-6h-68.46l-73.42 239.61a41 41 0 0 1-17.21 23.09 52.34 52.34 0 0 1-29.83 8.71h-92.17l157.56-515.38 82.61 72q14.54 13.72 14.53 29.79a38.47 38.47 0 0 1-1.91 11.71Z" transform="translate(-207 -1603.27)" style="fill:url(#a)"/></svg>